<svg height="512pt" viewBox="-5 0 512 512" width="512pt" xmlns="http://www.w3.org/2000/svg"><path d="m185.851562 94.480469c2.726563 2.269531 2.78125 23.46875.910157 25.945312 2.152343.167969 4.3125.324219 6.441406.585938 38.691406 4.699219 77.574219 15.097656 116.273437 10.386719 5.902344-.714844 11.886719-1.078126 17.949219-1.078126 5.585938 0 11.097657-27.546874 16.542969-26.996093 27.273438-9.292969 9.980469-28.851563 103.070312-47.46875 0 0-102.855468-55.855469-167.566406 18.617187v-65.164062h-37.238281s-.453125 55.855468 0 65.164062c-37.691406-46.542968-74.015625-18.617187-101.945313-74.472656 0 0-8.285156 49.75 45.5625 94.480469zm0 0" fill="#23a24d"/><path d="m327.433594 102.410156c-6.058594 0-12.046875.363282-17.945313 1.089844-38.699219 4.703125-77.574219 4.703125-116.273437 0-5.902344-.714844-11.890625-1.089844-17.949219-1.089844-96.796875 0-175.265625 84.464844-175.265625 200.140625s78.46875 209.449219 175.265625 209.449219c15.144531 0 29.84375-2.300781 43.855469-6.609375 20.910156-6.441406 43.539062-6.441406 64.4375 0 14.019531 4.320313 28.710937 6.609375 43.855468 6.609375 96.816407 0 175.285157-93.773438 175.285157-209.449219s-78.46875-200.140625-175.265625-200.140625zm0 0" fill="#ed6969"/><g fill="#fff"><path d="m175.265625 437.527344c-54.636719 0-100.792969-61.816406-100.792969-134.976563 0-71.632812 43.335938-125.65625 100.792969-125.65625 3.015625 0 6.03125.175781 8.9375.519531 10.628906 1.3125 19.996094 8.566407 26.96875 14.738282 3.84375 3.417968 4.207031 9.300781.789063 13.144531-3.40625 3.828125-9.289063 4.199219-13.144532.792969-7.15625-6.339844-12.679687-9.671875-16.875-10.195313-2.171875-.261719-4.433594-.382812-6.683594-.382812-46.835937 0-82.164062 46.027343-82.164062 107.039062 0 63.0625 37.625 116.347657 82.171875 116.347657 5.546875 0 11.097656-.839844 16.46875-2.503907 4.757813-1.460937 10.964844-7.511719 15.835937-12.605469 3.554688-3.714843 9.445313-3.855468 13.160157-.296874 3.714843 3.546874 3.855469 9.4375.300781 13.152343-7.179688 7.523438-15.035156 14.847657-23.824219 17.558594-7.140625 2.195313-14.523437 3.324219-21.941406 3.324219zm0 0"/><path d="m327.433594 437.527344c-7.429688 0-14.820313-1.117188-21.949219-3.304688-8.796875-2.730468-16.644531-10.046875-23.824219-17.566406-3.546875-3.714844-3.414062-9.609375.296875-13.15625 3.714844-3.566406 9.609375-3.425781 13.164063.296875 4.878906 5.101563 11.089844 11.152344 15.84375 12.625 5.34375 1.648437 10.894531 2.484375 16.460937 2.484375 44.554688 0 82.183594-53.285156 82.183594-116.355469 0-61.023437-35.332031-107.039062-82.175781-107.039062-2.25 0-4.515625.132812-6.691406.402343-4.191407.503907-9.710938 3.835938-16.871094 10.175782-3.851563 3.425781-9.734375 3.042968-13.144532-.792969-3.40625-3.84375-3.050781-9.726563.792969-13.144531 6.980469-6.171875 16.347657-13.433594 26.96875-14.726563 2.90625-.34375 5.921875-.53125 8.9375-.53125 57.464844 0 100.800781 54.023438 100.800781 125.65625 0 73.160157-46.15625 134.976563-100.792968 134.976563zm0 0"/><path d="m139.835938 316.515625h-9.3125c-5.136719 0-9.308594-4.160156-9.308594-9.308594 0-5.148437 4.171875-9.3125 9.308594-9.3125h9.3125c5.136718 0 9.308593 4.164063 9.308593 9.3125 0 5.148438-4.171875 9.308594-9.308593 9.308594zm0 0"/><path d="m142.5625 351.035156c-2.382812 0-4.765625-.914062-6.582031-2.730468-3.640625-3.636719-3.640625-9.523438 0-13.160157l6.582031-6.582031c3.628906-3.640625 9.53125-3.640625 13.164062 0 3.636719 3.636719 3.636719 9.523438 0 13.160156l-6.582031 6.582032c-1.816406 1.816406-4.199219 2.730468-6.582031 2.730468zm0 0"/><path d="m161.179688 378.960938c-2.382813 0-4.765626-.910157-6.582032-2.726563-3.640625-3.640625-3.640625-9.523437 0-13.164063l6.582032-6.582031c3.632812-3.640625 9.535156-3.640625 13.164062 0 3.640625 3.640625 3.640625 9.523438 0 13.164063l-6.582031 6.582031c-1.816407 1.816406-4.199219 2.726563-6.582031 2.726563zm0 0"/><path d="m195.691406 390.988281c-5.140625 0-9.3125-4.160156-9.3125-9.308593v-9.308594c0-5.148438 4.171875-9.308594 9.3125-9.308594 5.136719 0 9.308594 4.160156 9.308594 9.308594v9.308594c0 5.148437-4.171875 9.308593-9.308594 9.308593zm0 0"/><path d="m149.144531 288.585938c-2.382812 0-4.765625-.910157-6.582031-2.726563l-6.582031-6.582031c-3.640625-3.640625-3.640625-9.523438 0-13.164063 3.628906-3.640625 9.53125-3.640625 13.164062 0l6.582031 6.582031c3.636719 3.640626 3.636719 9.523438 0 13.164063-1.816406 1.824219-4.199218 2.726563-6.582031 2.726563zm0 0"/><path d="m167.761719 260.660156c-2.382813 0-4.765625-.914062-6.582031-2.726562l-6.582032-6.582032c-3.640625-3.640624-3.640625-9.523437 0-13.164062 3.632813-3.640625 9.535156-3.640625 13.164063 0l6.582031 6.582031c3.640625 3.640625 3.640625 9.523438 0 13.164063-1.816406 1.824218-4.199219 2.726562-6.582031 2.726562zm0 0"/><path d="m195.691406 251.351562c-5.140625 0-9.3125-4.164062-9.3125-9.3125v-9.308593c0-5.148438 4.171875-9.308594 9.3125-9.308594 5.136719 0 9.308594 4.160156 9.308594 9.308594v9.308593c0 5.148438-4.171875 9.3125-9.308594 9.3125zm0 0"/><path d="m372.566406 316.515625h-9.308594c-5.140624 0-9.308593-4.160156-9.308593-9.308594 0-5.148437 4.167969-9.3125 9.308593-9.3125h9.308594c5.136719 0 9.308594 4.164063 9.308594 9.3125 0 5.148438-4.171875 9.308594-9.308594 9.308594zm0 0"/><path d="m360.527344 351.035156c-2.382813 0-4.765625-.914062-6.578125-2.730468l-6.582031-6.582032c-3.640626-3.636718-3.640626-9.523437 0-13.160156 3.628906-3.640625 9.53125-3.640625 13.160156 0l6.582031 6.570312c3.640625 3.640626 3.640625 9.523438 0 13.164063-1.8125 1.824219-4.195313 2.738281-6.582031 2.738281zm0 0"/><path d="m341.910156 378.953125c-2.382812 0-4.765625-.914063-6.582031-2.730469l-6.582031-6.578125c-3.628906-3.640625-3.628906-9.523437 0-13.164062 3.640625-3.640625 9.535156-3.640625 13.164062 0l6.582032 6.582031c3.628906 3.636719 3.628906 9.523438 0 13.160156-1.824219 1.816406-4.207032 2.730469-6.582032 2.730469zm0 0"/><path d="m307.402344 390.988281c-5.140625 0-9.308594-4.160156-9.308594-9.308593v-9.308594c0-5.148438 4.167969-9.308594 9.308594-9.308594 5.136718 0 9.308594 4.160156 9.308594 9.308594v9.308594c0 5.140624-4.171876 9.308593-9.308594 9.308593zm0 0"/><path d="m353.949219 288.585938c-2.386719 0-4.769531-.910157-6.582031-2.726563-3.640626-3.640625-3.640626-9.523437 0-13.164063l6.582031-6.582031c3.628906-3.640625 9.53125-3.640625 13.160156 0 3.640625 3.640625 3.640625 9.523438 0 13.164063l-6.582031 6.582031c-1.8125 1.824219-4.195313 2.726563-6.578125 2.726563zm0 0"/><path d="m335.328125 260.660156c-2.382813 0-4.765625-.914062-6.582031-2.726562-3.628906-3.640625-3.628906-9.535156 0-13.164063l6.59375-6.582031c3.628906-3.648438 9.53125-3.632812 13.160156 0 3.632812 3.640625 3.632812 9.53125 0 13.164062l-6.589844 6.582032c-1.824218 1.8125-4.199218 2.726562-6.582031 2.726562zm0 0"/><path d="m307.402344 251.351562c-5.140625 0-9.308594-4.164062-9.308594-9.3125v-9.308593c0-5.148438 4.167969-9.308594 9.308594-9.308594 5.136718 0 9.308594 4.160156 9.308594 9.308594v9.308593c0 5.140626-4.171876 9.3125-9.308594 9.3125zm0 0"/></g></svg>